<?xml version="1.0" standalone="no"?><!DOCTYPE svg PUBLIC "-//W3C//DTD SVG 1.1//EN" "http://www.w3.org/Graphics/SVG/1.1/DTD/svg11.dtd"><svg width="200" height="200" viewBox="0 0 200 200" version="1.1" xmlns="http://www.w3.org/2000/svg" xmlns:xlink="http://www.w3.org/1999/xlink"><defs><style type="text/css"><![CDATA[
@font-face { font-family: ifont; src: url("//at.alicdn.com/t/font_1442373896_4754455.eot?#iefix") format("embedded-opentype"), url("//at.alicdn.com/t/font_1442373896_4754455.woff") format("woff"), url("//at.alicdn.com/t/font_1442373896_4754455.ttf") format("truetype"), url("//at.alicdn.com/t/font_1442373896_4754455.svg#ifont") format("svg"); }

]]></style></defs><g class="transform-group"><g transform="scale(0.1953125, 0.1953125)"><path d="M384 128A64 64 13680 1 0 640 128 64 64 13680 1 0 384 128zM655.53 240.47A64 64 13680 1 0 911.53 240.47 64 64 13680 1 0 655.53 240.47zM832 512A32 32 13680 1 0 960 512 32 32 13680 1 0 832 512zM719.53 783.53A32 32 13680 1 0 847.53 783.53 32 32 13680 1 0 719.53 783.53zM448.002 896A32 32 13680 1 0 576.002 896 32 32 13680 1 0 448.002 896zM176.472 783.53A32 32 13680 1 0 304.472 783.53 32 32 13680 1 0 176.472 783.53zM144.472 240.47A48 48 13680 1 0 336.472 240.47 48 48 13680 1 0 144.472 240.47zM56 512A36 36 13680 1 0 200 512 36 36 13680 1 0 56 512z" fill="#ecf0f1"></path></g></g></svg>