<?xml version="1.0" encoding="utf-8"?>
<!-- Generator: Adobe Illustrator 21.0.0, SVG Export Plug-In . SVG Version: 6.00 Build 0)  -->
<svg version="1.1" id="图层_1" xmlns="http://www.w3.org/2000/svg" xmlns:xlink="http://www.w3.org/1999/xlink" x="0px" y="0px"
	 viewBox="0 0 512 512" style="enable-background:new 0 0 512 512;" xml:space="preserve">
<style type="text/css">
	.st0{fill:none;stroke:#666666;stroke-width:1.5;stroke-miterlimit:10;vector-effect:non-scaling-stroke}
	.st1{fill:none;stroke:#666666;stroke-width:1.5;stroke-linecap:round;stroke-miterlimit:10;vector-effect:non-scaling-stroke}
	.st2{fill:none;stroke:#666666;stroke-miterlimit:10;vector-effect:non-scaling-stroke}
</style>
<g>
	<line class="st0" x1="89.7" y1="184" x2="297" y2="184"/>
	<line class="st1" x1="90" y1="395" x2="90" y2="184"/>
	<line class="st1" x1="222" y1="110" x2="90" y2="183.9"/>
	<line class="st0" x1="430" y1="110" x2="297" y2="184"/>
	<line class="st1" x1="222" y1="110" x2="430" y2="110"/>
	<g>
		<line class="st2" x1="222" y1="169" x2="222" y2="176"/>
		<line class="st2" x1="222" y1="180" x2="222" y2="189"/>
		<line class="st2" x1="222" y1="191" x2="222" y2="200"/>
		<line class="st2" x1="222" y1="203" x2="222" y2="212"/>
		<line class="st2" x1="222" y1="216" x2="222" y2="223"/>
		<line class="st2" x1="222" y1="227" x2="222" y2="236"/>
		<line class="st2" x1="222" y1="238" x2="222" y2="247"/>
		<line class="st2" x1="222" y1="250" x2="222" y2="259"/>
		<line class="st2" x1="222" y1="264" x2="222" y2="271"/>
		<line class="st2" x1="222" y1="275" x2="222" y2="284"/>
		<line class="st2" x1="222" y1="286" x2="222" y2="295"/>
		<line class="st2" x1="222" y1="298" x2="222" y2="307"/>
		<line class="st2" x1="222" y1="311" x2="222" y2="320"/>
	</g>
	<line class="st1" x1="297" y1="395" x2="297" y2="184"/>
	<line class="st1" x1="430" y1="322.9" x2="430" y2="110"/>
	<line class="st1" x1="430" y1="323" x2="297.1" y2="395"/>
	<line class="st1" x1="90.1" y1="395" x2="296.8" y2="395"/>
	<g>
		<g>
			<line class="st2" x1="375.5" y1="322.5" x2="368.5" y2="322.5"/>
			<line class="st2" x1="364.5" y1="322.5" x2="355.5" y2="322.5"/>
			<line class="st2" x1="353.5" y1="322.5" x2="344.5" y2="322.5"/>
			<line class="st2" x1="341.5" y1="322.5" x2="332.5" y2="322.5"/>
			<line class="st2" x1="328.5" y1="322.5" x2="321.5" y2="322.5"/>
			<line class="st2" x1="317.5" y1="322.5" x2="308.5" y2="322.5"/>
			<line class="st2" x1="306.5" y1="322.5" x2="297.5" y2="322.5"/>
			<line class="st2" x1="294.5" y1="322.5" x2="285.5" y2="322.5"/>
			<line class="st2" x1="280.5" y1="322.5" x2="273.5" y2="322.5"/>
			<line class="st2" x1="269.5" y1="322.5" x2="260.5" y2="322.5"/>
			<line class="st2" x1="258.5" y1="322.5" x2="249.5" y2="322.5"/>
			<line class="st2" x1="246.5" y1="322.5" x2="237.5" y2="322.5"/>
			<line class="st2" x1="233.5" y1="322.5" x2="224.5" y2="322.5"/>
		</g>
		<g>
			<line class="st2" x1="429.5" y1="322.5" x2="420.5" y2="322.5"/>
			<line class="st2" x1="418.5" y1="322.5" x2="409.5" y2="322.5"/>
			<line class="st2" x1="406.5" y1="322.5" x2="397.5" y2="322.5"/>
			<line class="st2" x1="393.5" y1="322.5" x2="384.5" y2="322.5"/>
		</g>
	</g>
	<g>
		<line class="st2" x1="221.4" y1="322" x2="215.4" y2="325.4"/>
		<line class="st2" x1="211.9" y1="327.3" x2="204" y2="331.6"/>
		<line class="st2" x1="202.3" y1="332.5" x2="194.5" y2="336.8"/>
		<line class="st2" x1="191.9" y1="338.3" x2="184" y2="342.6"/>
		<line class="st2" x1="180.6" y1="344.5" x2="174.5" y2="347.8"/>
		<line class="st2" x1="171" y1="349.7" x2="163.2" y2="354"/>
		<line class="st2" x1="161.4" y1="355" x2="153.6" y2="359.3"/>
		<line class="st2" x1="151" y1="360.7" x2="143.2" y2="365"/>
		<line class="st2" x1="138.8" y1="367.4" x2="132.7" y2="370.8"/>
		<line class="st2" x1="129.2" y1="372.7" x2="121.4" y2="377"/>
		<line class="st2" x1="119.7" y1="377.9" x2="111.8" y2="382.2"/>
		<line class="st2" x1="109.2" y1="383.7" x2="101.4" y2="388"/>
		<line class="st2" x1="97.9" y1="389.9" x2="90.1" y2="394.2"/>
	</g>
	<line class="st2" x1="222" y1="110" x2="222" y2="117"/>
	<line class="st2" x1="222" y1="121" x2="222" y2="130"/>
	<line class="st2" x1="222" y1="132" x2="222" y2="141"/>
	<line class="st2" x1="222" y1="144" x2="222" y2="153"/>
	<line class="st2" x1="222" y1="157" x2="222" y2="166"/>
</g>
</svg>
