<?xml version="1.0" encoding="utf-8"?>
<!-- Generator: Adobe Illustrator 21.0.0, SVG Export Plug-In . SVG Version: 6.00 Build 0)  -->
<svg version="1.1" id="图层_1" xmlns="http://www.w3.org/2000/svg" xmlns:xlink="http://www.w3.org/1999/xlink" x="0px" y="0px"
	 viewBox="0 0 512 512" style="enable-background:new 0 0 512 512;" xml:space="preserve">
<style type="text/css">
	.st0{fill:none;stroke:#666666;stroke-miterlimit:10;vector-effect:non-scaling-stroke}
</style>
<g>
	<path class="st0" d="M226,95c0,0,1-4-5-4h77c0,0-5,0-5,4v51l110,251c0,0,6,15-11,18H126c0,0-14-1-9-20l109-248V95z"/>
	<line class="st0" x1="236" y1="96" x2="284" y2="96"/>
	<line class="st0" x1="231.5" y1="99.5" x2="231.5" y2="138.5"/>
	<line class="st0" x1="287.5" y1="99.5" x2="287.5" y2="138.5"/>
	<line class="st0" x1="236" y1="142" x2="284" y2="142"/>
	<line class="st0" x1="226.5" y1="146.5" x2="293.5" y2="146.5"/>
	<line class="st0" x1="290.5" y1="154.5" x2="397.5" y2="397.5"/>
	<line class="st0" x1="229.5" y1="154.5" x2="121.5" y2="398.5"/>
	<line class="st0" x1="128.5" y1="409.5" x2="391.5" y2="409.5"/>
</g>
</svg>
