<?xml version="1.0" encoding="utf-8"?>
<!-- Generator: Adobe Illustrator 21.0.0, SVG Export Plug-In . SVG Version: 6.00 Build 0)  -->
<svg version="1.1" id="图层_1" xmlns="http://www.w3.org/2000/svg" xmlns:xlink="http://www.w3.org/1999/xlink" x="0px" y="0px"
	 viewBox="0 0 512 512" style="enable-background:new 0 0 512 512;" xml:space="preserve">
<style type="text/css">
	.st0{fill:none;stroke:#666666;stroke-width:4;stroke-miterlimit:10;vector-effect:non-scaling-stroke}
	.st1{fill:none;stroke:#666666;stroke-miterlimit:10;vector-effect:non-scaling-stroke}
	.st2{fill:none;stroke:#666666;stroke-width:1.5;stroke-miterlimit:10;vector-effect:non-scaling-stroke}
	.st3{fill:none;stroke:#666666;stroke-width:2;stroke-miterlimit:10;vector-effect:non-scaling-stroke}
	.st4{fill:#666666;}
	.st5{fill:none;stroke:#666666;stroke-width:1.5;stroke-linecap:round;stroke-miterlimit:10;vector-effect:non-scaling-stroke}
	.st6{fill:none;stroke:#666666;stroke-linecap:round;stroke-miterlimit:10;vector-effect:non-scaling-stroke}
</style>
<g>
	<line class="st0" x1="143" y1="111" x2="354" y2="111"/>
	<line class="st1" x1="149.5" y1="109.5" x2="173.5" y2="75.5"/>
	<line class="st1" x1="169.5" y1="109.5" x2="193.5" y2="75.5"/>
	<line class="st1" x1="189.5" y1="109.5" x2="213.5" y2="75.5"/>
	<line class="st1" x1="209.5" y1="109.5" x2="233.5" y2="75.5"/>
	<line class="st1" x1="229.5" y1="109.5" x2="253.5" y2="75.5"/>
	<line class="st1" x1="249.5" y1="109.5" x2="273.5" y2="75.5"/>
	<line class="st1" x1="269.5" y1="109.5" x2="293.5" y2="75.5"/>
	<line class="st1" x1="289.5" y1="109.5" x2="313.5" y2="75.5"/>
	<line class="st1" x1="309.5" y1="109.5" x2="333.5" y2="75.5"/>
	<line class="st1" x1="329.5" y1="109.5" x2="353.5" y2="75.5"/>
	<line class="st1" x1="349.5" y1="109.5" x2="373.5" y2="75.5"/>
	<line class="st2" x1="250.5" y1="112.5" x2="250.5" y2="271"/>
	<circle class="st3" cx="250.3" cy="272.3" r="43"/>
	<circle class="st4" cx="250.4" cy="272.4" r="3.6"/>
	<line class="st5" x1="293" y1="278" x2="293" y2="436"/>
	<line class="st5" x1="207" y1="276" x2="207" y2="391"/>
	<rect x="180.5" y="391.5" class="st1" width="48" height="48"/>
	<line class="st1" x1="189.5" y1="391.5" x2="180.5" y2="405.5"/>
	<line class="st1" x1="204.5" y1="391.5" x2="180.5" y2="428.5"/>
	<line class="st1" x1="217.5" y1="391.5" x2="186.5" y2="439.5"/>
	<line class="st1" x1="228.5" y1="395.5" x2="198.5" y2="439.5"/>
	<line class="st1" x1="228.5" y1="415.5" x2="212.5" y2="439.5"/>
	<line class="st6" x1="293.1" y1="436.2" x2="301.1" y2="422.2"/>
	<line class="st6" x1="284.8" y1="422.1" x2="292.8" y2="436.1"/>
</g>
</svg>
