<?xml version="1.0" encoding="utf-8"?>
<!-- Generator: Adobe Illustrator 21.0.0, SVG Export Plug-In . SVG Version: 6.00 Build 0)  -->
<svg version="1.1" id="图层_1" xmlns="http://www.w3.org/2000/svg" xmlns:xlink="http://www.w3.org/1999/xlink" x="0px" y="0px"
	 viewBox="0 0 512 512" style="enable-background:new 0 0 512 512;" xml:space="preserve">
<style type="text/css">
	.st0{fill:none;stroke:#666666;stroke-width:4;stroke-miterlimit:10;vector-effect:non-scaling-stroke}
	.st1{fill:none;stroke:#666666;stroke-miterlimit:10;vector-effect:non-scaling-stroke}
	.st2{fill:none;stroke:#666666;stroke-width:1.5;stroke-miterlimit:10;vector-effect:non-scaling-stroke}
	.st3{fill:none;stroke:#666666;stroke-width:2;stroke-miterlimit:10;vector-effect:non-scaling-stroke}
	.st4{fill:#666666;vector-effect:non-scaling-stroke}
	.st5{fill:none;stroke:#666666;stroke-width:1.5;stroke-linecap:round;stroke-miterlimit:10;vector-effect:non-scaling-stroke}
	.st6{fill:none;stroke:#666666;stroke-linecap:round;stroke-miterlimit:10;vector-effect:non-scaling-stroke}
</style>
<g>
	<line class="st0" x1="129" y1="122" x2="340" y2="122"/>
	<line class="st1" x1="135.5" y1="120.5" x2="159.5" y2="86.5"/>
	<line class="st1" x1="155.5" y1="120.5" x2="179.5" y2="86.5"/>
	<line class="st1" x1="175.5" y1="120.5" x2="199.5" y2="86.5"/>
	<line class="st1" x1="195.5" y1="120.5" x2="219.5" y2="86.5"/>
	<line class="st1" x1="215.5" y1="120.5" x2="239.5" y2="86.5"/>
	<line class="st1" x1="235.5" y1="120.5" x2="259.5" y2="86.5"/>
	<line class="st1" x1="255.5" y1="120.5" x2="279.5" y2="86.5"/>
	<line class="st1" x1="275.5" y1="120.5" x2="299.5" y2="86.5"/>
	<line class="st1" x1="295.5" y1="120.5" x2="319.5" y2="86.5"/>
	<line class="st1" x1="315.5" y1="120.5" x2="339.5" y2="86.5"/>
	<line class="st1" x1="335.5" y1="120.5" x2="359.5" y2="86.5"/>
	<line class="st2" x1="236.5" y1="123.5" x2="236.5" y2="282"/>
	<circle class="st3" cx="279.3" cy="283.3" r="43"/>
	<circle class="st4" cx="279.4" cy="283.4" r="3.6"/>
	<line class="st5" x1="322.3" y1="283.4" x2="322.3" y2="182"/>
	<line class="st5" x1="279.2" y1="287" x2="279.2" y2="402"/>
	<rect x="252.7" y="402.5" class="st1" width="48" height="48"/>
	<line class="st1" x1="261.7" y1="402.5" x2="252.7" y2="416.5"/>
	<line class="st1" x1="276.7" y1="402.5" x2="252.7" y2="439.5"/>
	<line class="st1" x1="289.7" y1="402.5" x2="258.7" y2="450.5"/>
	<line class="st1" x1="300.7" y1="406.5" x2="270.7" y2="450.5"/>
	<line class="st1" x1="300.7" y1="426.5" x2="284.7" y2="450.5"/>
	<line class="st6" x1="322.1" y1="181.8" x2="314.1" y2="195.8"/>
	<line class="st6" x1="330.4" y1="195.9" x2="322.4" y2="181.9"/>
</g>
</svg>
