<?xml version="1.0" encoding="utf-8"?>
<!-- Generator: Adobe Illustrator 21.0.0, SVG Export Plug-In . SVG Version: 6.00 Build 0)  -->
<svg version="1.1" id="图层_1" xmlns="http://www.w3.org/2000/svg" xmlns:xlink="http://www.w3.org/1999/xlink" x="0px" y="0px"
	 viewBox="0 0 512 512" style="enable-background:new 0 0 512 512;" xml:space="preserve">
<style type="text/css">
	.st0{fill:none;stroke:#666666;stroke-width:3;stroke-linecap:round;stroke-miterlimit:10;vector-effect:non-scaling-stroke}
	.st1{fill:none;stroke:#666666;stroke-linecap:round;stroke-miterlimit:10;vector-effect:non-scaling-stroke}
	.st2{fill:#666666;vector-effect:non-scaling-stroke}
</style>
<g>
	<line class="st0" x1="80" y1="349.9" x2="445" y2="349.9"/>
	<polygon class="st1" points="297.5,183 228.5,264 194.5,225 263.5,144 	"/>
	<line class="st1" x1="196.5" y1="227.3" x2="265.2" y2="146.6"/>
	<line class="st1" x1="200.9" y1="232.2" x2="269.5" y2="151.3"/>
	<line class="st1" x1="205.8" y1="237.9" x2="273.5" y2="156.3"/>
	<line class="st1" x1="209.5" y1="242.3" x2="278.5" y2="162.3"/>
	<line class="st1" x1="213.8" y1="246.9" x2="282.5" y2="166.3"/>
	<line class="st1" x1="218.5" y1="252.3" x2="286.5" y2="171.3"/>
	<line class="st1" x1="223.1" y1="257.6" x2="291.2" y2="176.6"/>
	<line class="st1" x1="226.7" y1="262" x2="295.5" y2="181.3"/>
	<rect x="119.5" y="264.3" class="st1" width="239" height="28"/>
	<line class="st1" x1="119.5" y1="274.3" x2="128.5" y2="264.3"/>
	<line class="st1" x1="119.5" y1="285.3" x2="136.5" y2="264.3"/>
	<line class="st1" x1="121.5" y1="292.3" x2="145.5" y2="264.3"/>
	<line class="st1" x1="130.5" y1="292.3" x2="154.5" y2="264.3"/>
	<line class="st1" x1="140.5" y1="292.3" x2="163.5" y2="264.3"/>
	<line class="st1" x1="148.5" y1="292.3" x2="171.5" y2="264.3"/>
	<line class="st1" x1="155.6" y1="292.3" x2="178.5" y2="264.3"/>
	<line class="st1" x1="165.5" y1="292.3" x2="188.5" y2="264.3"/>
	<line class="st1" x1="173.5" y1="292.3" x2="196.5" y2="264.3"/>
	<line class="st1" x1="182.5" y1="292.3" x2="206.6" y2="264.3"/>
	<line class="st1" x1="190.5" y1="292.3" x2="214.4" y2="264.3"/>
	<line class="st1" x1="200.5" y1="292.3" x2="222.5" y2="264.3"/>
	<line class="st1" x1="207.4" y1="292.3" x2="231.5" y2="264.3"/>
	<line class="st1" x1="216.4" y1="292.3" x2="240.5" y2="264.3"/>
	<line class="st1" x1="225.5" y1="292.3" x2="249.5" y2="264.3"/>
	<line class="st1" x1="234.5" y1="292.3" x2="257.5" y2="264.3"/>
	<line class="st1" x1="243.5" y1="292.3" x2="266.5" y2="264.3"/>
	<line class="st1" x1="250.5" y1="292.3" x2="273.5" y2="264.3"/>
	<line class="st1" x1="260.5" y1="292.3" x2="283.5" y2="264.3"/>
	<line class="st1" x1="268.5" y1="292.3" x2="291.5" y2="264.3"/>
	<line class="st1" x1="277.5" y1="292.3" x2="301.3" y2="264.6"/>
	<line class="st1" x1="285.5" y1="292.3" x2="309.4" y2="264.3"/>
	<line class="st1" x1="295.5" y1="292.3" x2="317.5" y2="264.3"/>
	<line class="st1" x1="302.9" y1="292.3" x2="326.5" y2="264.3"/>
	<line class="st1" x1="312" y1="292.3" x2="335.1" y2="264.6"/>
	<line class="st1" x1="320.5" y1="292.3" x2="344.5" y2="264.3"/>
	<line class="st1" x1="329.5" y1="292.3" x2="352.5" y2="264.3"/>
	<line class="st1" x1="337.5" y1="292.3" x2="358.5" y2="268.3"/>
	<line class="st1" x1="346.5" y1="292.3" x2="358.5" y2="278.3"/>
	<line class="st1" x1="354.5" y1="292.3" x2="358.5" y2="288.3"/>
	<line class="st1" x1="304.5" y1="182.5" x2="364.5" y2="182.5"/>
	<polygon class="st2" points="380.1,183 364.9,174.2 364.9,191.7 	"/>
	<circle class="st1" cx="166.8" cy="320.5" r="12.8"/>
	<circle class="st1" cx="166.8" cy="320.5" r="27.8"/>
	<circle class="st1" cx="312.8" cy="320.5" r="12.8"/>
	<circle class="st1" cx="312.8" cy="320.5" r="27.8"/>
	<rect x="341.2" y="322.6" class="st1" width="26.3" height="26.3"/>
	<line class="st1" x1="345.4" y1="322.5" x2="341.2" y2="327.7"/>
	<line class="st1" x1="354.1" y1="322.6" x2="341.2" y2="337.1"/>
	<line class="st1" x1="362.8" y1="322.9" x2="341.2" y2="348.9"/>
	<line class="st1" x1="367.4" y1="330.1" x2="348.7" y2="348.9"/>
	<line class="st1" x1="367.4" y1="340.6" x2="360.2" y2="348.6"/>
</g>
</svg>
