<?xml version="1.0" encoding="utf-8"?>
<!-- Generator: Adobe Illustrator 21.0.0, SVG Export Plug-In . SVG Version: 6.00 Build 0)  -->
<svg version="1.1" id="图层_1" xmlns="http://www.w3.org/2000/svg" xmlns:xlink="http://www.w3.org/1999/xlink" x="0px" y="0px"
	 viewBox="0 0 512 512" style="enable-background:new 0 0 512 512;" xml:space="preserve">
<style type="text/css">
	.st0{fill:none;stroke:#666666;stroke-width:2;stroke-linecap:round;stroke-miterlimit:10;vector-effect:non-scaling-stroke}
	.st1{fill:none;stroke:#666666;stroke-linecap:round;stroke-miterlimit:10;vector-effect:non-scaling-stroke}
</style>
<g>
	<ellipse class="st0" cx="161" cy="212.5" rx="18" ry="12.5"/>
	<ellipse class="st0" cx="155.5" cy="214" rx="31.5" ry="23"/>
	<ellipse class="st0" cx="371" cy="212.5" rx="18" ry="12.5"/>
	<ellipse class="st0" cx="378.5" cy="214" rx="31.5" ry="23"/>
	<line class="st1" x1="251" y1="103" x2="266.3" y2="98"/>
	<line class="st1" x1="282.5" y1="103.5" x2="266.3" y2="98"/>
	<line class="st1" x1="266.6" y1="119" x2="282.5" y2="103.5"/>
	<line class="st1" x1="266.2" y1="118.9" x2="251.1" y2="103.1"/>
	<line class="st1" x1="266.5" y1="98.5" x2="266.5" y2="293.5"/>
	<line class="st1" x1="256.5" y1="195.5" x2="256.5" y2="293.5"/>
	<line class="st1" x1="260.5" y1="256.2" x2="260.5" y2="293.2"/>
	<line class="st1" x1="266.5" y1="143.5" x2="256.5" y2="173.5"/>
	<line class="st1" x1="275.5" y1="195.5" x2="275.5" y2="250.5"/>
	<line class="st1" x1="197.5" y1="226.5" x2="197.5" y2="250.5"/>
	<line class="st1" x1="334.5" y1="226.5" x2="334.5" y2="250.5"/>
	<line class="st1" x1="197.5" y1="238.5" x2="334.5" y2="238.5"/>
	<line class="st1" x1="197.5" y1="250.5" x2="334.5" y2="250.5"/>
	<line class="st1" x1="207.5" y1="238.5" x2="207.5" y2="250.5"/>
	<line class="st1" x1="217.5" y1="238.5" x2="217.5" y2="250.3"/>
	<line class="st1" x1="227.5" y1="238.5" x2="227.5" y2="250.4"/>
	<line class="st1" x1="236.5" y1="238.8" x2="236.5" y2="250.5"/>
	<line class="st1" x1="246.5" y1="238.5" x2="246.5" y2="250.5"/>
	<line class="st1" x1="285.5" y1="238.5" x2="285.5" y2="250.5"/>
	<line class="st1" x1="295.5" y1="238.5" x2="295.5" y2="250.5"/>
	<line class="st1" x1="304.5" y1="238.5" x2="304.5" y2="250.5"/>
	<line class="st1" x1="315.5" y1="238.5" x2="315.5" y2="250.5"/>
	<line class="st1" x1="324.5" y1="238.6" x2="324.5" y2="250.5"/>
	<line class="st1" x1="153.5" y1="237.5" x2="153.5" y2="269.5"/>
	<line class="st1" x1="171.5" y1="234.5" x2="171.5" y2="269.5"/>
	<line class="st1" x1="153.5" y1="269.5" x2="171.5" y2="269.5"/>
	<line class="st1" x1="159.5" y1="269.5" x2="159.5" y2="286.5"/>
	<line class="st1" x1="166.5" y1="269.5" x2="166.5" y2="286.5"/>
	<line class="st1" x1="159.5" y1="286.5" x2="166.5" y2="286.5"/>
	<line class="st1" x1="156.5" y1="293.5" x2="159.5" y2="286.5"/>
	<line class="st1" x1="156.5" y1="301.5" x2="156.5" y2="293.5"/>
	<line class="st1" x1="88.5" y1="381.5" x2="156.5" y2="301.5"/>
	<line class="st1" x1="156.5" y1="293.4" x2="376.5" y2="293.5"/>
	<line class="st1" x1="156.5" y1="301.5" x2="376.5" y2="301.5"/>
	<line class="st1" x1="360.5" y1="233.5" x2="360.5" y2="269.5"/>
	<line class="st1" x1="380.5" y1="237.5" x2="380.5" y2="269.5"/>
	<line class="st1" x1="360.5" y1="269.5" x2="380.5" y2="269.5"/>
	<line class="st1" x1="366.5" y1="269.5" x2="366.5" y2="286.5"/>
	<line class="st1" x1="372.5" y1="269.5" x2="372.5" y2="286.3"/>
	<line class="st1" x1="366.5" y1="286.5" x2="372.5" y2="286.5"/>
	<line class="st1" x1="376.5" y1="293.5" x2="372.5" y2="286.5"/>
	<line class="st1" x1="376.5" y1="301.5" x2="376.5" y2="293.5"/>
	<line class="st1" x1="443.5" y1="381.5" x2="376.5" y2="301.5"/>
	<line class="st1" x1="326.5" y1="301.5" x2="392.5" y2="381.5"/>
	<line class="st1" x1="443.5" y1="381.5" x2="392.5" y2="381.5"/>
	<line class="st1" x1="139.5" y1="321.5" x2="342.7" y2="321.5"/>
	<line class="st1" x1="114.8" y1="350.5" x2="366.9" y2="350.5"/>
	<line class="st1" x1="139.5" y1="381.5" x2="165.5" y2="350.5"/>
	<line class="st1" x1="88.5" y1="381.5" x2="139.5" y2="381.5"/>
</g>
</svg>
