<?xml version="1.0" encoding="utf-8"?>
<!-- Generator: Adobe Illustrator 21.0.0, SVG Export Plug-In . SVG Version: 6.00 Build 0)  -->
<svg version="1.1" id="图层_1" xmlns="http://www.w3.org/2000/svg" xmlns:xlink="http://www.w3.org/1999/xlink" x="0px" y="0px"
	 viewBox="0 0 512 512" style="enable-background:new 0 0 512 512;" xml:space="preserve">
<style type="text/css">
	.st0{fill:none;stroke:#666666;stroke-miterlimit:10;vector-effect:non-scaling-stroke}
	.st1{fill:none;stroke:#666666;stroke-linecap:round;stroke-miterlimit:10;vector-effect:non-scaling-stroke}
</style>
<g>
	<path class="st0" d="M203,62c0,0,148,60,155,192c0,0,20,129-155,211"/>
	<line class="st1" x1="240.1" y1="81.5" x2="183.1" y2="112.5"/>
	<line class="st1" x1="260.3" y1="95" x2="203.3" y2="125"/>
	<line class="st1" x1="278.5" y1="109" x2="222.5" y2="138"/>
	<line class="st1" x1="294.8" y1="123.8" x2="236.8" y2="154.8"/>
	<line class="st1" x1="310.1" y1="140.2" x2="253.1" y2="170.2"/>
	<line class="st1" x1="322.9" y1="156.7" x2="263.9" y2="187.7"/>
	<line class="st1" x1="334.7" y1="175" x2="275.7" y2="206"/>
	<line class="st1" x1="343.5" y1="193.5" x2="280.5" y2="225.5"/>
	<line class="st1" x1="350.5" y1="213.5" x2="285.5" y2="247.5"/>
	<line class="st1" x1="355.5" y1="234.5" x2="287.5" y2="269.5"/>
	<line class="st1" x1="358.3" y1="257.7" x2="283.3" y2="295.7"/>
	<line class="st1" x1="357.8" y1="280.5" x2="273.8" y2="324.5"/>
	<line class="st1" x1="353.1" y1="306.5" x2="250.1" y2="359.5"/>
	<line class="st1" x1="342.5" y1="336.5" x2="173.5" y2="423.5"/>
	<line class="st1" x1="323.2" y1="371" x2="174.2" y2="448"/>
	<line class="st1" x1="284" y1="413.5" x2="195" y2="460.5"/>
</g>
</svg>
