<?xml version="1.0" encoding="utf-8"?>
<!-- Generator: Adobe Illustrator 21.0.0, SVG Export Plug-In . SVG Version: 6.00 Build 0)  -->
<svg version="1.1" id="图层_1" xmlns="http://www.w3.org/2000/svg" xmlns:xlink="http://www.w3.org/1999/xlink" x="0px" y="0px"
	 viewBox="0 0 512 512" style="enable-background:new 0 0 512 512;" xml:space="preserve">
<style type="text/css">
	.st0{fill:none;stroke:#666666;stroke-width:1.5;stroke-linecap:round;stroke-miterlimit:10;vector-effect:non-scaling-stroke}
	.st1{fill:none;stroke:#666666;stroke-width:1.5;stroke-miterlimit:10;vector-effect:non-scaling-stroke}
</style>
<g>
	<line class="st0" x1="48" y1="17" x2="476" y2="17"/>
	<line class="st0" x1="104.8" y1="107" x2="323.9" y2="107"/>
	<line class="st0" x1="105.1" y1="503" x2="323.9" y2="503"/>
	<line class="st0" x1="105" y1="107.2" x2="105" y2="502.3"/>
	<line class="st0" x1="324" y1="107.1" x2="324" y2="502.2"/>
	<line class="st0" x1="476" y1="17" x2="476" y2="394"/>
	<line class="st0" x1="48" y1="17" x2="48" y2="394"/>
	<line class="st0" x1="48.7" y1="17.6" x2="105" y2="107.8"/>
	<line class="st1" x1="324" y1="107" x2="475.9" y2="17.5"/>
	<line class="st0" x1="476" y1="394" x2="323.9" y2="503"/>
	<line class="st0" x1="48" y1="394" x2="105" y2="503"/>
	<line class="st1" x1="48.4" y1="394" x2="67" y2="394"/>
	<line class="st1" x1="76" y1="394" x2="94" y2="394"/>
	<line class="st1" x1="104" y1="394" x2="122" y2="394"/>
	<line class="st1" x1="131" y1="394" x2="149" y2="394"/>
	<line class="st1" x1="155" y1="394" x2="173" y2="394"/>
	<line class="st1" x1="185" y1="394" x2="203" y2="394"/>
	<line class="st1" x1="212" y1="394" x2="230" y2="394"/>
	<line class="st1" x1="237" y1="394" x2="255" y2="394"/>
	<line class="st1" x1="264" y1="394" x2="282" y2="394"/>
	<line class="st1" x1="293" y1="394" x2="311" y2="394"/>
	<line class="st1" x1="320" y1="394" x2="338" y2="394"/>
	<line class="st1" x1="347" y1="394" x2="365" y2="394"/>
	<line class="st1" x1="374" y1="394" x2="392" y2="394"/>
	<line class="st1" x1="399" y1="394" x2="417" y2="394"/>
	<line class="st1" x1="426" y1="394" x2="444" y2="394"/>
	<line class="st1" x1="454" y1="394" x2="475.7" y2="394"/>
</g>
</svg>
