<?xml version="1.0" encoding="utf-8"?>
<!-- Generator: Adobe Illustrator 21.0.0, SVG Export Plug-In . SVG Version: 6.00 Build 0)  -->
<svg version="1.1" id="图层_1" xmlns="http://www.w3.org/2000/svg" xmlns:xlink="http://www.w3.org/1999/xlink" x="0px" y="0px"
	 viewBox="0 0 512 512" style="enable-background:new 0 0 512 512;" xml:space="preserve">
<style type="text/css">
	.st0{fill:none;stroke:#666666;stroke-miterlimit:10;vector-effect:non-scaling-stroke}
</style>
<g>
	<path class="st0" d="M156,139c0,0-2-18-17-16c0,0,3-23,30-25h227c0,0-13,0-14,15v281c0,0,0,24-26,30H180c0,0-23-4-25-31L156,139z"
		/>
	<line class="st0" x1="156" y1="211" x2="382" y2="211"/>
	<line class="st0" x1="183.5" y1="290.5" x2="210.5" y2="290.5"/>
	<line class="st0" x1="223.5" y1="301.5" x2="242.5" y2="301.5"/>
	<line class="st0" x1="234.5" y1="293.5" x2="268.5" y2="293.5"/>
	<line class="st0" x1="265.5" y1="318.5" x2="292.5" y2="318.5"/>
	<line class="st0" x1="195.5" y1="312.5" x2="231.5" y2="312.5"/>
	<line class="st0" x1="196.5" y1="342.5" x2="269.5" y2="342.5"/>
	<line class="st0" x1="277.5" y1="340.5" x2="312.5" y2="340.5"/>
	<line class="st0" x1="304.5" y1="329.5" x2="324.5" y2="329.5"/>
	<line class="st0" x1="316.5" y1="321.5" x2="350.5" y2="321.5"/>
	<line class="st0" x1="297.5" y1="282.5" x2="332.5" y2="282.5"/>
	<line class="st0" x1="279" y1="370.5" x2="352" y2="370.5"/>
</g>
</svg>
