<?xml version="1.0" encoding="utf-8"?>
<!-- Generator: Adobe Illustrator 21.0.0, SVG Export Plug-In . SVG Version: 6.00 Build 0)  -->
<svg version="1.1" id="图层_1" xmlns="http://www.w3.org/2000/svg" xmlns:xlink="http://www.w3.org/1999/xlink" x="0px" y="0px"
	 viewBox="0 0 512 512" style="enable-background:new 0 0 512 512;" xml:space="preserve">
<style type="text/css">
	.st0{fill:none;stroke:#666666;stroke-linecap:round;stroke-miterlimit:10;vector-effect:non-scaling-stroke}
</style>
<path class="st0" d="M43.5,238.5h22c0,0,0,61,28,61c0,0,22,0,25-57c0,0,2-46-9-48c0,0-11,11-9,44c0,0,0,60,27,61c0,0,22,1,26-59
	c0,0,2-41-10-46c0,0-12,14-9,55c0,0,5,52,27,50c0,0,25,3,26-61c0,0,2-36-9-44c0,0-14,9-9,54c0,0,1,48,26,51c0,0,25,4,27-62
	c0,0,0-39-10-43c0,0-13,16-9,55c0,0,2,46,27,51c0,0,23,0,27-60c0,0-2-47-11-46c0,0-12,21-9,55c0,0,3,51,28,51c0,0,22-1,26-61
	c0,0-1-40-10-45c0,0-11,16-10,54c0,0,5,51,27,52c0,0,23,7,28-66c0,0-5-43-11-39c0,0-10,1-9,50c0,0,1,53,28,55c0,0,26-6,25-60
	c0,0,1-43-9-46c0,0-14,10-9,58c0,0,3,47,27,48c0,0,24,1,26-62c0,0-2-42-10-44c0,0-12,11-9,55c0,0,0,44,27,51c0,0,26-1,26-63h21"/>
</svg>
