<?xml version="1.0" encoding="utf-8"?>
<!-- Generator: Adobe Illustrator 21.0.0, SVG Export Plug-In . SVG Version: 6.00 Build 0)  -->
<svg version="1.1" id="图层_1" xmlns="http://www.w3.org/2000/svg" xmlns:xlink="http://www.w3.org/1999/xlink" x="0px" y="0px"
	 viewBox="0 0 512 512" style="enable-background:new 0 0 512 512;" xml:space="preserve">
<style type="text/css">
	.st0{fill:none;stroke:#666666;stroke-width:3;stroke-linecap:round;stroke-miterlimit:10;vector-effect:non-scaling-stroke}
	.st1{fill:none;stroke:#666666;stroke-linecap:round;stroke-miterlimit:10;vector-effect:non-scaling-stroke}
	.st2{fill:#666666;vector-effect:non-scaling-stroke}
</style>
<g>
	<line class="st0" x1="80" y1="349.9" x2="445" y2="349.9"/>
	<polygon class="st1" points="228.5,144 297.5,225 263.5,264 194.5,183 	"/>
	<line class="st1" x1="226.8" y1="146.6" x2="295.5" y2="227.3"/>
	<line class="st1" x1="222.5" y1="151.3" x2="291.1" y2="232.2"/>
	<line class="st1" x1="218.5" y1="156.3" x2="286.2" y2="237.9"/>
	<line class="st1" x1="213.5" y1="162.3" x2="282.5" y2="242.3"/>
	<line class="st1" x1="209.5" y1="166.3" x2="278.2" y2="246.9"/>
	<line class="st1" x1="205.5" y1="171.3" x2="273.5" y2="252.3"/>
	<line class="st1" x1="200.8" y1="176.6" x2="268.9" y2="257.6"/>
	<line class="st1" x1="196.5" y1="181.3" x2="265.3" y2="262"/>
	<rect x="119.5" y="264.3" class="st1" width="239" height="28"/>
	<line class="st1" x1="119.5" y1="274.3" x2="128.5" y2="264.3"/>
	<line class="st1" x1="119.5" y1="285.3" x2="136.5" y2="264.3"/>
	<line class="st1" x1="121.5" y1="292.3" x2="145.5" y2="264.3"/>
	<line class="st1" x1="130.5" y1="292.3" x2="154.5" y2="264.3"/>
	<line class="st1" x1="140.5" y1="292.3" x2="163.5" y2="264.3"/>
	<line class="st1" x1="148.5" y1="292.3" x2="171.5" y2="264.3"/>
	<line class="st1" x1="155.6" y1="292.3" x2="178.5" y2="264.3"/>
	<line class="st1" x1="165.5" y1="292.3" x2="188.5" y2="264.3"/>
	<line class="st1" x1="173.5" y1="292.3" x2="196.5" y2="264.3"/>
	<line class="st1" x1="182.5" y1="292.3" x2="206.6" y2="264.3"/>
	<line class="st1" x1="190.5" y1="292.3" x2="214.4" y2="264.3"/>
	<line class="st1" x1="200.5" y1="292.3" x2="222.5" y2="264.3"/>
	<line class="st1" x1="207.4" y1="292.3" x2="231.5" y2="264.3"/>
	<line class="st1" x1="216.4" y1="292.3" x2="240.5" y2="264.3"/>
	<line class="st1" x1="225.5" y1="292.3" x2="249.5" y2="264.3"/>
	<line class="st1" x1="234.5" y1="292.3" x2="257.5" y2="264.3"/>
	<line class="st1" x1="243.5" y1="292.3" x2="266.5" y2="264.3"/>
	<line class="st1" x1="250.5" y1="292.3" x2="273.5" y2="264.3"/>
	<line class="st1" x1="260.5" y1="292.3" x2="283.5" y2="264.3"/>
	<line class="st1" x1="268.5" y1="292.3" x2="291.5" y2="264.3"/>
	<line class="st1" x1="277.5" y1="292.3" x2="301.3" y2="264.6"/>
	<line class="st1" x1="285.5" y1="292.3" x2="309.4" y2="264.3"/>
	<line class="st1" x1="295.5" y1="292.3" x2="317.5" y2="264.3"/>
	<line class="st1" x1="302.9" y1="292.3" x2="326.5" y2="264.3"/>
	<line class="st1" x1="312" y1="292.3" x2="335.1" y2="264.6"/>
	<line class="st1" x1="320.5" y1="292.3" x2="344.5" y2="264.3"/>
	<line class="st1" x1="329.5" y1="292.3" x2="352.5" y2="264.3"/>
	<line class="st1" x1="337.5" y1="292.3" x2="358.5" y2="268.3"/>
	<line class="st1" x1="346.5" y1="292.3" x2="358.5" y2="278.3"/>
	<line class="st1" x1="354.5" y1="292.3" x2="358.5" y2="288.3"/>
	<line class="st1" x1="358.5" y1="278.3" x2="418.5" y2="278.3"/>
	<polygon class="st2" points="434.1,278.8 418.9,270 418.9,287.5 	"/>
	<circle class="st1" cx="166.8" cy="320.5" r="12.8"/>
	<circle class="st1" cx="166.8" cy="320.5" r="27.8"/>
	<circle class="st1" cx="312.8" cy="320.5" r="12.8"/>
	<circle class="st1" cx="312.8" cy="320.5" r="27.8"/>
</g>
</svg>
