<?xml version="1.0" encoding="utf-8"?>
<!-- Generator: Adobe Illustrator 21.0.0, SVG Export Plug-In . SVG Version: 6.00 Build 0)  -->
<svg version="1.1" id="图层_1" xmlns="http://www.w3.org/2000/svg" xmlns:xlink="http://www.w3.org/1999/xlink" x="0px" y="0px"
	 viewBox="0 0 512 512" style="enable-background:new 0 0 512 512;" xml:space="preserve">
<style type="text/css">
	.st0{fill:none;stroke:#666666;stroke-linecap:round;stroke-miterlimit:10;vector-effect:non-scaling-stroke}
	.st1{fill:#666666;vector-effect:non-scaling-stroke}
</style>
<g>
	<line class="st0" x1="270.2" y1="194.1" x2="351" y2="194.1"/>
	<polygon class="st1" points="364.2,195.1 349,186.3 349,203.8 	"/>
	<line class="st0" x1="269.2" y1="309" x2="350" y2="309"/>
	<polygon class="st1" points="363.2,309 348,300.3 348,317.8 	"/>
	<ellipse class="st0" cx="257.5" cy="246.5" rx="13.5" ry="130.5"/>
	<line class="st0" x1="138.7" y1="253" x2="245.3" y2="195"/>
	<polygon class="st1" points="204.5,217 187,216.9 195.6,232.1 	"/>
	<line class="st0" x1="246" y1="311" x2="139.4" y2="253"/>
	<polygon class="st1" points="195.6,272.9 187,288.1 204.5,288 	"/>
	<line class="st0" x1="255.3" y1="119" x2="266.3" y2="148"/>
	<line class="st0" x1="251.9" y1="128" x2="268.5" y2="176.6"/>
	<line class="st0" x1="249.9" y1="143.5" x2="269.9" y2="199.5"/>
	<line class="st0" x1="247.8" y1="157" x2="270.8" y2="222"/>
	<line class="st0" x1="246.5" y1="172.2" x2="270.5" y2="241.2"/>
	<line class="st0" x1="245.3" y1="189.5" x2="270.3" y2="261.5"/>
	<line class="st0" x1="244.5" y1="206.7" x2="270.5" y2="281.7"/>
	<line class="st0" x1="244" y1="225.9" x2="270" y2="296.9"/>
	<line class="st0" x1="244.7" y1="245.3" x2="268.7" y2="317.3"/>
	<line class="st0" x1="244.5" y1="266.1" x2="267.5" y2="333.1"/>
	<line class="st0" x1="244.8" y1="287.7" x2="265.8" y2="347.7"/>
	<line class="st0" x1="245.8" y1="308.9" x2="264.8" y2="360.9"/>
	<line class="st0" x1="247.9" y1="335.8" x2="259.9" y2="371.8"/>
	<line class="st0" x1="77" y1="253" x2="439" y2="253"/>
</g>
</svg>
