<?xml version="1.0" encoding="utf-8"?>
<!-- Generator: Adobe Illustrator 21.0.0, SVG Export Plug-In . SVG Version: 6.00 Build 0)  -->
<svg version="1.1" id="图层_1" xmlns="http://www.w3.org/2000/svg" xmlns:xlink="http://www.w3.org/1999/xlink" x="0px" y="0px"
	 viewBox="0 0 512 512" style="enable-background:new 0 0 512 512;" xml:space="preserve">
<style type="text/css">
	.st0{fill:none;stroke:#666666;stroke-width:1.5;stroke-linecap:round;stroke-miterlimit:10;vector-effect:non-scaling-stroke}
	.st1{fill:none;stroke:#666666;stroke-width:1.5;stroke-miterlimit:10;vector-effect:non-scaling-stroke}
	.st2{fill:none;stroke:#666666;stroke-miterlimit:10;vector-effect:non-scaling-stroke}
</style>
<g>
	<line class="st0" x1="94" y1="145" x2="301" y2="145"/>
	<line class="st0" x1="94" y1="438" x2="94" y2="145"/>
	<line class="st1" x1="226" y1="71" x2="94" y2="145"/>
	<line class="st1" x1="434" y1="71" x2="301" y2="145"/>
	<line class="st0" x1="226" y1="71" x2="434" y2="71"/>
	<g>
		<line class="st2" x1="226" y1="212" x2="226" y2="219"/>
		<line class="st2" x1="226" y1="223" x2="226" y2="232"/>
		<line class="st2" x1="226" y1="234" x2="226" y2="243"/>
		<line class="st2" x1="226" y1="246" x2="226" y2="255"/>
		<line class="st2" x1="226" y1="259" x2="226" y2="266"/>
		<line class="st2" x1="226" y1="270" x2="226" y2="279"/>
		<line class="st2" x1="226" y1="281" x2="226" y2="290"/>
		<line class="st2" x1="226" y1="293" x2="226" y2="302"/>
		<line class="st2" x1="226" y1="307" x2="226" y2="314"/>
		<line class="st2" x1="226" y1="318" x2="226" y2="327"/>
		<line class="st2" x1="226" y1="329" x2="226" y2="338"/>
		<line class="st2" x1="226" y1="341" x2="226" y2="350"/>
		<line class="st2" x1="226" y1="354" x2="226" y2="363"/>
	</g>
	<line class="st0" x1="434" y1="366" x2="301" y2="438"/>
	<line class="st0" x1="94" y1="438" x2="301" y2="438"/>
	<g>
		<g>
			<line class="st2" x1="379.5" y1="365.5" x2="372.5" y2="365.5"/>
			<line class="st2" x1="368.5" y1="365.5" x2="359.5" y2="365.5"/>
			<line class="st2" x1="357.5" y1="365.5" x2="348.5" y2="365.5"/>
			<line class="st2" x1="345.5" y1="365.5" x2="336.5" y2="365.5"/>
			<line class="st2" x1="332.5" y1="365.5" x2="325.5" y2="365.5"/>
			<line class="st2" x1="321.5" y1="365.5" x2="312.5" y2="365.5"/>
			<line class="st2" x1="310.5" y1="365.5" x2="301.5" y2="365.5"/>
			<line class="st2" x1="298.5" y1="365.5" x2="289.5" y2="365.5"/>
			<line class="st2" x1="284.5" y1="365.5" x2="277.5" y2="365.5"/>
			<line class="st2" x1="273.5" y1="365.5" x2="264.5" y2="365.5"/>
			<line class="st2" x1="262.5" y1="365.5" x2="253.5" y2="365.5"/>
			<line class="st2" x1="250.5" y1="365.5" x2="241.5" y2="365.5"/>
			<line class="st2" x1="237.5" y1="365.5" x2="228.5" y2="365.5"/>
		</g>
		<g>
			<line class="st2" x1="433.5" y1="365.5" x2="424.5" y2="365.5"/>
			<line class="st2" x1="422.5" y1="365.5" x2="413.5" y2="365.5"/>
			<line class="st2" x1="410.5" y1="365.5" x2="401.5" y2="365.5"/>
			<line class="st2" x1="397.5" y1="365.5" x2="388.5" y2="365.5"/>
		</g>
	</g>
	<g>
		<line class="st2" x1="225.4" y1="365" x2="219.4" y2="368.4"/>
		<line class="st2" x1="215.9" y1="370.3" x2="208" y2="374.6"/>
		<line class="st2" x1="206.3" y1="375.5" x2="198.5" y2="379.8"/>
		<line class="st2" x1="195.9" y1="381.3" x2="188" y2="385.6"/>
		<line class="st2" x1="184.6" y1="387.5" x2="178.5" y2="390.8"/>
		<line class="st2" x1="175" y1="392.7" x2="167.2" y2="397"/>
		<line class="st2" x1="165.4" y1="398" x2="157.6" y2="402.3"/>
		<line class="st2" x1="155" y1="403.7" x2="147.2" y2="408"/>
		<line class="st2" x1="142.8" y1="410.4" x2="136.7" y2="413.8"/>
		<line class="st2" x1="133.2" y1="415.7" x2="125.4" y2="420"/>
		<line class="st2" x1="123.7" y1="420.9" x2="115.8" y2="425.2"/>
		<line class="st2" x1="113.2" y1="426.7" x2="105.4" y2="431"/>
		<line class="st2" x1="101.9" y1="432.9" x2="94.1" y2="437.2"/>
	</g>
	<line class="st0" x1="301" y1="438" x2="301" y2="145.1"/>
	<line class="st0" x1="434" y1="365.9" x2="434" y2="71"/>
	<line class="st2" x1="226" y1="71" x2="226" y2="77"/>
	<line class="st2" x1="226" y1="79" x2="226" y2="88"/>
	<line class="st2" x1="226" y1="91" x2="226" y2="100"/>
	<line class="st2" x1="226" y1="104" x2="226" y2="111"/>
	<line class="st2" x1="226" y1="115" x2="226" y2="124"/>
	<line class="st2" x1="226" y1="126" x2="226" y2="135"/>
	<line class="st2" x1="226" y1="138" x2="226" y2="147"/>
	<line class="st2" x1="226" y1="152" x2="226" y2="159"/>
	<line class="st2" x1="226" y1="163" x2="226" y2="172"/>
	<line class="st2" x1="226" y1="174" x2="226" y2="183"/>
	<line class="st2" x1="226" y1="186" x2="226" y2="195"/>
	<line class="st2" x1="226" y1="199" x2="226" y2="208"/>
</g>
</svg>
