<?xml version="1.0" encoding="utf-8"?>
<!-- Generator: Adobe Illustrator 21.0.0, SVG Export Plug-In . SVG Version: 6.00 Build 0)  -->
<svg version="1.1" id="图层_1" xmlns="http://www.w3.org/2000/svg" xmlns:xlink="http://www.w3.org/1999/xlink" x="0px" y="0px"
	 viewBox="0 0 512 512" style="enable-background:new 0 0 512 512;" xml:space="preserve">
<style type="text/css">
	.st0{fill:none;stroke:#666666;stroke-linecap:round;stroke-miterlimit:10;vector-effect:non-scaling-stroke}
</style>
<g>
	<path class="st0" d="M178,105c0,0,251,146-6,302"/>
	<line class="st0" x1="178" y1="105" x2="214" y2="87"/>
	<line class="st0" x1="196" y1="117" x2="255" y2="88"/>
	<line class="st0" x1="210.5" y1="127.5" x2="267" y2="101"/>
	<line class="st0" x1="225" y1="140" x2="282" y2="114"/>
	<line class="st0" x1="239" y1="154" x2="296" y2="127"/>
	<line class="st0" x1="251" y1="167" x2="308" y2="141"/>
	<line class="st0" x1="261.9" y1="181.5" x2="319.9" y2="153.5"/>
	<line class="st0" x1="271.5" y1="196.5" x2="330.5" y2="168.5"/>
	<line class="st0" x1="278.9" y1="212.5" x2="339.9" y2="183.5"/>
	<line class="st0" x1="284.5" y1="228.5" x2="346.5" y2="199.5"/>
	<line class="st0" x1="287.5" y1="247.5" x2="351.5" y2="216.5"/>
	<line class="st0" x1="287.5" y1="265.5" x2="355.5" y2="234.5"/>
	<line class="st0" x1="283.5" y1="288.5" x2="356.5" y2="253.5"/>
	<line class="st0" x1="273.9" y1="311.5" x2="354.9" y2="274.5"/>
	<line class="st0" x1="254.4" y1="340" x2="348.4" y2="295"/>
	<line class="st0" x1="218.8" y1="374.7" x2="341.8" y2="318.7"/>
	<line class="st0" x1="183.5" y1="412.5" x2="326.5" y2="345.5"/>
	<line class="st0" x1="203.5" y1="422.5" x2="300.5" y2="376.5"/>
	<line class="st0" x1="224.5" y1="431.5" x2="242.5" y2="423.5"/>
</g>
</svg>
