<?xml version="1.0" encoding="utf-8"?>
<!-- Generator: Adobe Illustrator 21.0.0, SVG Export Plug-In . SVG Version: 6.00 Build 0)  -->
<svg version="1.1" id="图层_1" xmlns="http://www.w3.org/2000/svg" xmlns:xlink="http://www.w3.org/1999/xlink" x="0px" y="0px"
	 viewBox="0 0 512 512" style="enable-background:new 0 0 512 512;" xml:space="preserve">
<style type="text/css">
	.st0{fill:none;stroke:#666666;stroke-miterlimit:10;vector-effect:non-scaling-stroke}
	.st1{fill:none;stroke:#666666;stroke-width:4;stroke-miterlimit:10;vector-effect:non-scaling-stroke}
</style>
<g>
	<line class="st0" x1="224" y1="79" x2="280" y2="96"/>
	<line class="st0" x1="224" y1="98" x2="280" y2="115"/>
	<line class="st0" x1="224" y1="118" x2="280" y2="135"/>
	<line class="st0" x1="224" y1="138" x2="280" y2="155"/>
	<line class="st0" x1="224" y1="159" x2="280" y2="176"/>
	<line class="st0" x1="224" y1="178" x2="280" y2="195"/>
	<line class="st0" x1="224" y1="198" x2="280" y2="215"/>
	<line class="st0" x1="224" y1="218" x2="280" y2="235"/>
	<line class="st0" x1="224" y1="239" x2="280" y2="256"/>
	<line class="st0" x1="224" y1="258" x2="280" y2="275"/>
	<line class="st0" x1="224" y1="278" x2="280" y2="295"/>
	<line class="st0" x1="224" y1="298" x2="280" y2="315"/>
	<line class="st0" x1="224" y1="319" x2="280" y2="336"/>
	<line class="st0" x1="224" y1="338" x2="280" y2="355"/>
	<line class="st0" x1="224" y1="358" x2="280" y2="375"/>
	<line class="st0" x1="224" y1="378" x2="280" y2="395"/>
	<line class="st0" x1="224" y1="396" x2="280" y2="413"/>
	<line class="st0" x1="224" y1="418" x2="280" y2="435"/>
	<line class="st1" x1="279.3" y1="76" x2="279.3" y2="443"/>
</g>
</svg>
