<?xml version="1.0" standalone="no"?><!DOCTYPE svg PUBLIC "-//W3C//DTD SVG 1.1//EN" "http://www.w3.org/Graphics/SVG/1.1/DTD/svg11.dtd"><svg t="1489732557276" class="icon" style="" viewBox="0 0 1024 1024" version="1.1" xmlns="http://www.w3.org/2000/svg" p-id="9696" xmlns:xlink="http://www.w3.org/1999/xlink" width="200" height="200"><defs><style type="text/css"></style></defs><path d="M793.706987 219.580021c-36.781718-36.055171-79.610152-64.363913-127.311571-84.145445-49.396014-20.48045-101.852736-30.864962-155.920142-30.864962-54.06229 0-106.520035 10.384511-155.916049 30.864962-47.701418 19.780509-90.535993 48.090275-127.314641 84.145445-36.775578 36.054147-65.654302 78.045517-85.830831 124.806517-20.889773 48.424896-31.485085 99.850126-31.485085 152.85227 0 52.993958 10.595312 104.424304 31.485085 152.848177 20.175505 46.763047 49.052183 88.754417 85.830831 124.806517 5.554506 5.446036 11.261485 10.688433 17.087167 15.777335l-74.628698 73.158207 32.787754 32.142048 78.435397-76.887135c22.967084 15.772218 47.567365 29.142737 73.633021 39.957037 49.396014 20.47738 101.853759 30.863938 155.916049 30.863938 54.067406 0 106.524129-10.386558 155.920142-30.863938 26.063609-10.8143 50.665936-24.184819 73.629951-39.957037l78.435397 76.887135 32.787754-32.142048-74.631768-73.158207c5.828752-5.088902 11.534707-10.332323 17.090237-15.777335 36.775578-36.052101 65.658396-78.044494 85.830831-124.806517 20.893866-48.424896 31.484062-99.854219 31.484062-152.848177 0-53.001121-10.589173-104.428398-31.484062-152.85227C859.365382 297.625538 830.488705 255.634168 793.706987 219.580021L793.706987 219.580021zM760.920256 742.750431c-66.894549 65.583694-155.842371 101.697193-250.440889 101.697193-94.605681 0-183.54941-36.112476-250.442936-101.697193-66.897619-65.578578-103.737666-152.770406-103.737666-245.512646 0-92.744287 36.839023-179.938162 103.737666-245.515716 66.894549-65.578578 155.837254-101.697193 250.442936-101.697193 94.598518 0 183.545316 36.114522 250.440889 101.697193 66.894549 65.578578 103.737666 152.771429 103.737666 245.515716C864.657922 589.981049 827.814806 677.171853 760.920256 742.750431L760.920256 742.750431zM509.388523 305.117163l-46.370097 0 0 271.383874 184.927803 0L647.946228 531.037589 509.388523 531.037589 509.388523 305.117163 509.388523 305.117163zM64.234977 227.964992 230.739175 64.736397l40.98239 40.178071L105.21839 268.143063 64.234977 227.964992 64.234977 227.964992zM749.222843 104.918561l40.98239-40.176025 166.504198 163.228595-40.98239 40.178071L749.222843 104.918561 749.222843 104.918561z" p-id="9697" fill="#ffffff"></path></svg>